<svg version="1.1" id="Layer_1" xmlns="http://www.w3.org/2000/svg" xmlns:xlink="http://www.w3.org/1999/xlink" x="0px" y="0px"
	 width="100%" viewBox="0 0 1024 1024" enable-background="new 0 0 1024 1024" xml:space="preserve">
<path fill="#FFFFFF" opacity="1.000000" stroke="none" 
	d="
M676.000000,1025.000000 
	C450.666656,1025.000000 225.833328,1025.000000 1.000000,1025.000000 
	C1.000000,683.666687 1.000000,342.333344 1.000000,1.000000 
	C342.333344,1.000000 683.666687,1.000000 1025.000000,1.000000 
	C1025.000000,342.333344 1025.000000,683.666687 1025.000000,1025.000000 
	C908.833313,1025.000000 792.666687,1025.000000 676.000000,1025.000000 
M483.414093,735.499878 
	C483.263855,759.481018 483.095917,783.462158 482.976715,807.443420 
	C482.949402,812.938660 482.813721,818.459412 483.303680,823.916809 
	C483.474213,825.816101 484.955353,828.241577 486.572235,829.254272 
	C493.150085,833.374451 500.031250,837.007629 506.765381,840.881531 
	C513.504395,844.758240 520.307007,844.961426 527.022705,841.059265 
	C537.737122,834.833435 547.937317,827.530518 559.139526,822.394043 
	C568.930603,817.904541 571.368591,811.646851 571.230530,801.457520 
	C570.679749,760.799866 571.059631,720.130249 570.992615,679.465149 
	C570.905029,626.317017 570.723328,573.168945 570.569275,520.020874 
	C570.561523,517.355225 570.458618,515.127014 573.496094,513.378784 
	C588.527405,504.727753 603.312744,495.650787 618.288818,486.901917 
	C654.507385,465.743286 690.669006,444.483002 727.082703,423.664398 
	C746.713501,412.440918 760.356995,396.673340 766.986267,375.042572 
	C773.886658,352.526886 769.401611,333.053192 749.669006,321.871124 
	C718.506592,304.212128 687.156311,286.884949 655.898438,269.394196 
	C626.506104,252.947250 597.174622,236.390915 567.726868,220.043900 
	C555.030884,212.996109 542.236145,206.100830 529.247742,199.613800 
	C520.012024,195.001007 510.394958,195.011276 501.010620,199.727081 
	C496.153046,202.168091 491.256653,204.546143 486.506500,207.184372 
	C451.441254,226.659454 416.365601,246.116577 381.377686,265.729950 
	C347.542236,284.697296 313.792267,303.817322 280.036346,322.926086 
	C266.535187,330.568848 253.086349,338.305603 239.679077,346.111938 
	C234.197006,349.303802 231.907639,354.120789 231.902267,360.627380 
	C231.820236,460.121887 231.640350,559.616394 231.356567,659.110535 
	C231.313492,674.210938 236.897369,685.154724 250.662506,692.706604 
	C276.846527,707.071655 302.550659,722.317871 328.347076,737.381470 
	C368.263214,760.690186 408.079468,784.169922 447.976105,807.512146 
	C450.723663,809.119629 453.786652,810.187988 457.069702,811.673035 
	C457.360077,810.138916 457.578979,809.518982 457.579865,808.898865 
	C457.599701,794.956665 457.596283,781.014404 457.595795,767.072205 
	C457.592346,667.409241 457.572205,567.746338 457.644531,468.083405 
	C457.647430,464.074951 456.772858,461.433990 452.944183,459.241058 
	C421.574585,441.273651 390.335541,423.078094 359.082153,404.908234 
	C349.298553,399.220276 339.592346,393.399261 328.923981,387.091187 
	C331.866028,384.994995 333.959198,383.244507 336.281982,381.886749 
	C387.610870,351.882874 439.112000,322.169739 490.232819,291.816010 
	C507.475616,281.577850 523.739197,280.823822 541.023621,291.121063 
	C564.142090,304.893921 587.655273,318.002472 610.854309,331.642395 
	C618.800842,336.314575 626.765747,341.164215 633.919250,346.929260 
	C645.856323,356.549408 644.027161,368.912354 632.979431,377.083405 
	C620.657593,386.196838 607.588135,394.388580 594.381226,402.199005 
	C559.408875,422.881348 524.222656,443.203888 489.014526,463.483765 
	C484.995300,465.798828 483.702362,468.502319 483.702057,473.014557 
	C483.696106,560.176331 483.540070,647.338135 483.414093,735.499878 
M599.189026,553.799377 
	C592.545105,556.522400 590.497559,561.152893 590.723999,568.524170 
	C591.449890,592.154663 591.337769,615.813049 591.402588,639.461121 
	C591.485291,669.624695 591.432983,699.788696 591.417480,729.952515 
	C591.415405,733.944641 591.232117,737.936768 591.227661,741.928955 
	C591.206482,760.863281 591.218201,779.797668 591.218201,799.716492 
	C593.972961,799.271973 596.107910,799.317322 597.900635,798.556396 
	C601.536255,797.013306 605.093384,795.214905 608.497314,793.207031 
	C657.563843,764.264587 706.606934,735.282288 755.635010,706.274658 
	C763.322449,701.726318 770.809937,696.834229 778.563110,692.404297 
	C791.596375,684.957458 796.884888,673.704712 796.651367,658.947632 
	C796.090027,623.472717 795.835876,587.992188 795.594788,552.513062 
	C795.198608,494.204742 794.923157,435.895630 794.548218,377.587158 
	C794.524841,373.947021 794.080750,370.309570 793.832336,366.670837 
	C793.236572,366.693542 792.640747,366.716217 792.044922,366.738892 
	C792.044922,371.618134 792.563721,376.562775 791.958374,381.365723 
	C788.736267,406.930542 775.312378,427.258636 758.295471,445.645386 
	C740.664734,464.695221 719.528870,479.450470 697.855591,493.245972 
	C665.513123,513.832642 632.540100,533.428772 599.189026,553.799377 
z"/>
<path fill="#08597E" opacity="1.000000" stroke="none" 
	d="
M483.414490,734.999878 
	C483.540070,647.338135 483.696106,560.176331 483.702057,473.014557 
	C483.702362,468.502319 484.995300,465.798828 489.014526,463.483765 
	C524.222656,443.203888 559.408875,422.881348 594.381226,402.199005 
	C607.588135,394.388580 620.657593,386.196838 632.979431,377.083405 
	C644.027161,368.912354 645.856323,356.549408 633.919250,346.929260 
	C626.765747,341.164215 618.800842,336.314575 610.854309,331.642395 
	C587.655273,318.002472 564.142090,304.893921 541.023621,291.121063 
	C523.739197,280.823822 507.475616,281.577850 490.232819,291.816010 
	C439.112000,322.169739 387.610870,351.882874 336.281982,381.886749 
	C333.959198,383.244507 331.866028,384.994995 328.923981,387.091187 
	C339.592346,393.399261 349.298553,399.220276 359.082153,404.908234 
	C390.335541,423.078094 421.574585,441.273651 452.944183,459.241058 
	C456.772858,461.433990 457.647430,464.074951 457.644531,468.083405 
	C457.572205,567.746338 457.592346,667.409241 457.595795,767.072205 
	C457.596283,781.014404 457.599701,794.956665 457.579865,808.898865 
	C457.578979,809.518982 457.360077,810.138916 457.069702,811.673035 
	C453.786652,810.187988 450.723663,809.119629 447.976105,807.512146 
	C408.079468,784.169922 368.263214,760.690186 328.347076,737.381470 
	C302.550659,722.317871 276.846527,707.071655 250.662506,692.706604 
	C236.897369,685.154724 231.313492,674.210938 231.356567,659.110535 
	C231.640350,559.616394 231.820236,460.121887 231.902267,360.627380 
	C231.907639,354.120789 234.197006,349.303802 239.679077,346.111938 
	C253.086349,338.305603 266.535187,330.568848 280.036346,322.926086 
	C313.792267,303.817322 347.542236,284.697296 381.377686,265.729950 
	C416.365601,246.116577 451.441254,226.659454 486.506500,207.184372 
	C491.256653,204.546143 496.153046,202.168091 501.010620,199.727081 
	C510.394958,195.011276 520.012024,195.001007 529.247742,199.613800 
	C542.236145,206.100830 555.030884,212.996109 567.726868,220.043900 
	C597.174622,236.390915 626.506104,252.947250 655.898438,269.394196 
	C687.156311,286.884949 718.506592,304.212128 749.669006,321.871124 
	C769.401611,333.053192 773.886658,352.526886 766.986267,375.042572 
	C760.356995,396.673340 746.713501,412.440918 727.082703,423.664398 
	C690.669006,444.483002 654.507385,465.743286 618.288818,486.901917 
	C603.312744,495.650787 588.527405,504.727753 573.496094,513.378784 
	C570.458618,515.127014 570.561523,517.355225 570.569275,520.020874 
	C570.723328,573.168945 570.905029,626.317017 570.992615,679.465149 
	C571.059631,720.130249 570.679749,760.799866 571.230530,801.457520 
	C571.368591,811.646851 568.930603,817.904541 559.139526,822.394043 
	C547.937317,827.530518 537.737122,834.833435 527.022705,841.059265 
	C520.307007,844.961426 513.504395,844.758240 506.765381,840.881531 
	C500.031250,837.007629 493.150085,833.374451 486.572235,829.254272 
	C484.955353,828.241577 483.474213,825.816101 483.303680,823.916809 
	C482.813721,818.459412 482.949402,812.938660 482.976715,807.443420 
	C483.095917,783.462158 483.263855,759.481018 483.414490,734.999878 
z"/>
<path fill="#08597E" opacity="1.000000" stroke="none" 
	d="
M599.512207,553.622803 
	C632.540100,533.428772 665.513123,513.832642 697.855591,493.245972 
	C719.528870,479.450470 740.664734,464.695221 758.295471,445.645386 
	C775.312378,427.258636 788.736267,406.930542 791.958374,381.365723 
	C792.563721,376.562775 792.044922,371.618134 792.044922,366.738892 
	C792.640747,366.716217 793.236572,366.693542 793.832336,366.670837 
	C794.080750,370.309570 794.524841,373.947021 794.548218,377.587158 
	C794.923157,435.895630 795.198608,494.204742 795.594788,552.513062 
	C795.835876,587.992188 796.090027,623.472717 796.651367,658.947632 
	C796.884888,673.704712 791.596375,684.957458 778.563110,692.404297 
	C770.809937,696.834229 763.322449,701.726318 755.635010,706.274658 
	C706.606934,735.282288 657.563843,764.264587 608.497314,793.207031 
	C605.093384,795.214905 601.536255,797.013306 597.900635,798.556396 
	C596.107910,799.317322 593.972961,799.271973 591.218201,799.716492 
	C591.218201,779.797668 591.206482,760.863281 591.227661,741.928955 
	C591.232117,737.936768 591.415405,733.944641 591.417480,729.952515 
	C591.432983,699.788696 591.485291,669.624695 591.402588,639.461121 
	C591.337769,615.813049 591.449890,592.154663 590.723999,568.524170 
	C590.497559,561.152893 592.545105,556.522400 599.512207,553.622803 
z"/>
</svg>